<mxfile host="app.diagrams.net" modified="2021-07-04T09:04:08.469Z" agent="5.0 (X11; Linux x86_64) AppleWebKit/537.36 (KHTML, like Gecko) Chrome/91.0.4472.77 Safari/537.36" etag="7NgvuiVCba7l7683Jf-I" version="14.8.4" type="github">
  <diagram id="C5RBs43oDa-KdzZeNtuy" name="Page-1">
    <mxGraphModel dx="3249" dy="2183" grid="1" gridSize="10" guides="1" tooltips="1" connect="1" arrows="1" fold="1" page="1" pageScale="1" pageWidth="827" pageHeight="1169" math="0" shadow="0">
      <root>
        <mxCell id="WIyWlLk6GJQsqaUBKTNV-0" />
        <mxCell id="WIyWlLk6GJQsqaUBKTNV-1" parent="WIyWlLk6GJQsqaUBKTNV-0" />
        <mxCell id="zkfFHV4jXpPFQw0GAbJ--13" value="Professor" style="swimlane;fontStyle=0;align=center;verticalAlign=top;childLayout=stackLayout;horizontal=1;startSize=26;horizontalStack=0;resizeParent=1;resizeLast=0;collapsible=1;marginBottom=0;rounded=0;shadow=0;strokeWidth=1;" parent="WIyWlLk6GJQsqaUBKTNV-1" vertex="1">
          <mxGeometry x="-1350" y="-1070" width="160" height="70" as="geometry">
            <mxRectangle x="340" y="380" width="170" height="26" as="alternateBounds" />
          </mxGeometry>
        </mxCell>
        <mxCell id="zkfFHV4jXpPFQw0GAbJ--14" value="Salary" style="text;align=left;verticalAlign=top;spacingLeft=4;spacingRight=4;overflow=hidden;rotatable=0;points=[[0,0.5],[1,0.5]];portConstraint=eastwest;" parent="zkfFHV4jXpPFQw0GAbJ--13" vertex="1">
          <mxGeometry y="26" width="160" height="26" as="geometry" />
        </mxCell>
        <mxCell id="zkfFHV4jXpPFQw0GAbJ--15" value="" style="line;html=1;strokeWidth=1;align=left;verticalAlign=middle;spacingTop=-1;spacingLeft=3;spacingRight=3;rotatable=0;labelPosition=right;points=[];portConstraint=eastwest;" parent="zkfFHV4jXpPFQw0GAbJ--13" vertex="1">
          <mxGeometry y="52" width="160" height="8" as="geometry" />
        </mxCell>
        <mxCell id="qbwc5lkEtiOVMPzcXpRS-0" value="" style="rounded=0;whiteSpace=wrap;html=1;" vertex="1" parent="WIyWlLk6GJQsqaUBKTNV-1">
          <mxGeometry x="650" y="210" width="823" height="800" as="geometry" />
        </mxCell>
        <mxCell id="qbwc5lkEtiOVMPzcXpRS-1" value="dom idea" style="text;html=1;strokeColor=none;fillColor=none;align=center;verticalAlign=middle;whiteSpace=wrap;rounded=0;" vertex="1" parent="WIyWlLk6GJQsqaUBKTNV-1">
          <mxGeometry x="653" y="220" width="40" height="20" as="geometry" />
        </mxCell>
        <mxCell id="qbwc5lkEtiOVMPzcXpRS-2" value="" style="rounded=0;whiteSpace=wrap;html=1;" vertex="1" parent="WIyWlLk6GJQsqaUBKTNV-1">
          <mxGeometry x="663" y="260" width="280" height="590" as="geometry" />
        </mxCell>
        <mxCell id="qbwc5lkEtiOVMPzcXpRS-3" value="" style="rounded=0;whiteSpace=wrap;html=1;" vertex="1" parent="WIyWlLk6GJQsqaUBKTNV-1">
          <mxGeometry x="973" y="260" width="260" height="590" as="geometry" />
        </mxCell>
        <mxCell id="qbwc5lkEtiOVMPzcXpRS-4" value="" style="rounded=0;whiteSpace=wrap;html=1;" vertex="1" parent="WIyWlLk6GJQsqaUBKTNV-1">
          <mxGeometry x="1253" y="260" width="210" height="590" as="geometry" />
        </mxCell>
        <mxCell id="qbwc5lkEtiOVMPzcXpRS-5" value="AnimationBase (this will be the base class)&lt;br&gt;" style="text;html=1;strokeColor=none;fillColor=none;align=left;verticalAlign=middle;whiteSpace=wrap;rounded=0;" vertex="1" parent="WIyWlLk6GJQsqaUBKTNV-1">
          <mxGeometry x="672" y="270" width="260" height="20" as="geometry" />
        </mxCell>
        <mxCell id="qbwc5lkEtiOVMPzcXpRS-6" value="fields:" style="text;html=1;strokeColor=none;fillColor=none;align=center;verticalAlign=middle;whiteSpace=wrap;rounded=0;" vertex="1" parent="WIyWlLk6GJQsqaUBKTNV-1">
          <mxGeometry x="665" y="300" width="40" height="20" as="geometry" />
        </mxCell>
        <mxCell id="qbwc5lkEtiOVMPzcXpRS-7" value="timeline: AnimeJS timeline&lt;br&gt;for playing animations sequentially or step by step&lt;br&gt;&lt;br&gt;buffer: a queue of animations where each element is an object specifying how the animation should play out&lt;br&gt;&lt;br&gt;step: a boolean which just tells us whether we should play animations sequentialy or step by step. will be toggled via the ui&lt;br&gt;&lt;br&gt;Methods:&lt;br&gt;pushAnimation(animation): pushes an animation object into buffer&lt;br&gt;&lt;br&gt;popAnimation(): removes the first animation in the queue and returns it&lt;br&gt;&lt;br&gt;clearAnimations(): clears all animations in the buffer and restarts the timeline&lt;br&gt;&lt;br&gt;animateSequence(): this function will keep popping from the queue and adding the animations to the timeline until the queue is empty&lt;br&gt;&lt;br&gt;stepSequence(): will do just one pop from the queue and add that animation to the timeline. best use is to be used as a callback when the step button is clicked&lt;br&gt;&lt;br&gt;&lt;br&gt;&lt;br&gt;by using a base class, we can have all the data structures extend this and implement their own animations while using the methods exposed by the base class" style="text;html=1;strokeColor=none;fillColor=none;spacing=5;spacingTop=-20;whiteSpace=wrap;overflow=hidden;rounded=0;" vertex="1" parent="WIyWlLk6GJQsqaUBKTNV-1">
          <mxGeometry x="665" y="330" width="268" height="610" as="geometry" />
        </mxCell>
        <mxCell id="qbwc5lkEtiOVMPzcXpRS-8" value="LinkedListAnimations (this class will extend AnimationBase)&lt;br&gt;&lt;br&gt;new fields:&lt;br&gt;animations: a lookup table which stores animations as objects. e.g. &quot;node_move_left&quot; corresponds to {translateX: &quot;-=100&quot;, duration: 500}&lt;br&gt;&lt;br&gt;new methods:&lt;br&gt;animateAppend(): will add animations to the queue to do an append sequence and if step is false it will also do animateSequence()" style="text;html=1;strokeColor=none;fillColor=none;spacing=5;spacingTop=-20;whiteSpace=wrap;overflow=hidden;rounded=0;" vertex="1" parent="WIyWlLk6GJQsqaUBKTNV-1">
          <mxGeometry x="983" y="290" width="190" height="530" as="geometry" />
        </mxCell>
        <mxCell id="qbwc5lkEtiOVMPzcXpRS-9" value="LinkedListBackend (stores the actual linked list itself)" style="text;html=1;strokeColor=none;fillColor=none;spacing=5;spacingTop=-20;whiteSpace=wrap;overflow=hidden;rounded=0;" vertex="1" parent="WIyWlLk6GJQsqaUBKTNV-1">
          <mxGeometry x="1263" y="290" width="190" height="120" as="geometry" />
        </mxCell>
        <mxCell id="qbwc5lkEtiOVMPzcXpRS-24" value="Animation" style="swimlane;childLayout=stackLayout;horizontal=1;startSize=30;horizontalStack=0;rounded=1;fontSize=14;fontStyle=1;strokeWidth=2;resizeParent=0;resizeLast=1;shadow=0;dashed=0;align=center;fontFamily=Courier New;fillColor=#dae8fc;strokeColor=#6c8ebf;" vertex="1" parent="WIyWlLk6GJQsqaUBKTNV-1">
          <mxGeometry x="140" y="-410" width="380" height="130" as="geometry" />
        </mxCell>
        <mxCell id="qbwc5lkEtiOVMPzcXpRS-26" value="LinkedListAnimation" style="swimlane;childLayout=stackLayout;horizontal=1;startSize=30;horizontalStack=0;rounded=1;fontSize=14;fontStyle=1;strokeWidth=2;resizeParent=0;resizeLast=1;shadow=0;dashed=0;align=center;fontFamily=Courier New;fillColor=#dae8fc;strokeColor=#6c8ebf;" vertex="1" parent="WIyWlLk6GJQsqaUBKTNV-1">
          <mxGeometry x="-270" y="-120" width="380" height="130" as="geometry" />
        </mxCell>
        <mxCell id="qbwc5lkEtiOVMPzcXpRS-27" value="BSTAnimation" style="swimlane;childLayout=stackLayout;horizontal=1;startSize=30;horizontalStack=0;rounded=1;fontSize=14;fontStyle=1;strokeWidth=2;resizeParent=0;resizeLast=1;shadow=0;dashed=0;align=center;fontFamily=Courier New;fillColor=#dae8fc;strokeColor=#6c8ebf;" vertex="1" parent="WIyWlLk6GJQsqaUBKTNV-1">
          <mxGeometry x="140" y="-120" width="380" height="130" as="geometry" />
        </mxCell>
        <mxCell id="qbwc5lkEtiOVMPzcXpRS-28" value="GraphAnimation" style="swimlane;childLayout=stackLayout;horizontal=1;startSize=30;horizontalStack=0;rounded=1;fontSize=14;fontStyle=1;strokeWidth=2;resizeParent=0;resizeLast=1;shadow=0;dashed=0;align=center;fontFamily=Courier New;fillColor=#dae8fc;strokeColor=#6c8ebf;" vertex="1" parent="WIyWlLk6GJQsqaUBKTNV-1">
          <mxGeometry x="552" y="-120" width="380" height="130" as="geometry" />
        </mxCell>
      </root>
    </mxGraphModel>
  </diagram>
</mxfile>
